<svg width="104" height="119" viewBox="0 0 104 119" fill="none" xmlns="http://www.w3.org/2000/svg">
<path d="M60.9637 4.82963C61.6784 2.1623 64.4201 0.579386 67.0874 1.2941L71.9171 2.58819C74.5844 3.3029 76.1673 6.04458 75.4526 8.71191L59.2764 69.0823C58.2044 73.0833 54.0918 75.4576 50.0908 74.3856V74.3856C46.0898 73.3135 43.7155 69.201 44.7875 65.2L60.9637 4.82963Z" fill="#668AFF"/>
<path d="M96.7332 44.8235C98.4306 44.3687 100.175 45.376 100.63 47.0734L102.865 55.4155C103.32 57.1129 102.313 58.8576 100.616 59.3124L77.126 65.6064C73.125 66.6785 69.0124 64.3041 67.9404 60.3031V60.3031C66.8683 56.3021 69.2427 52.1896 73.2437 51.1175L96.7332 44.8235Z" fill="#668AFF"/>
<path d="M8.95426 85.7243C7.25687 86.1792 5.51216 85.1718 5.05734 83.4745L2.82209 75.1324C2.36727 73.435 3.37458 71.6903 5.07197 71.2354L28.5615 64.9414C32.5625 63.8694 36.6751 66.2437 37.7471 70.2447V70.2447C38.8192 74.2457 36.4448 78.3583 32.4438 79.4303L8.95426 85.7243Z" fill="#668AFF"/>
<path d="M91.6095 95.4581C92.8521 96.7007 92.8521 98.7153 91.6095 99.9579L85.5027 106.065C84.2601 107.307 82.2455 107.307 81.0029 106.065L63.8073 88.8692C60.8784 85.9402 60.8784 81.1915 63.8073 78.2626V78.2626C66.7363 75.3336 71.485 75.3336 74.4139 78.2626L91.6095 95.4581Z" fill="#668AFF"/>
<path d="M3.21412 28.8206C1.43901 27.0455 1.43901 24.1674 3.21412 22.3923L7.39248 18.214C9.16759 16.4389 12.0456 16.4389 13.8207 18.214L40.6586 45.0519C43.5876 47.9808 43.5876 52.7296 40.6586 55.6585V55.6585C37.7297 58.5874 32.981 58.5874 30.052 55.6585L3.21412 28.8206Z" fill="#668AFF"/>
<path d="M46.3118 115.616C45.857 117.313 44.1123 118.321 42.4149 117.866L34.0728 115.631C32.3754 115.176 31.3681 113.431 31.8229 111.734L38.1169 88.2442C39.189 84.2432 43.3015 81.8688 47.3025 82.9409V82.9409C51.3035 84.013 53.6779 88.1255 52.6058 92.1265L46.3118 115.616Z" fill="#668AFF"/>
</svg>
