<svg width="667" height="667" viewBox="0 0 667 667" fill="none" xmlns="http://www.w3.org/2000/svg">
<path d="M528.334 433C528.333 384.5 529.315 411 525.834 370C516.834 264 449.334 182.5 336.334 170C219.834 179.5 145.334 261 133.334 371C133.334 407.43 130.334 387 133.334 429.5" fill="#B06B6B"/>
<path d="M333.334 132V433Z" fill="#B06B6B"/>
<path d="M166.667 44.594C215.696 16.2323 272.62 0 333.333 0C517.427 0 666.667 149.238 666.667 333.333C666.667 517.427 517.427 666.667 333.333 666.667C149.238 666.667 0 517.427 0 333.333C0 272.62 16.2323 215.696 44.594 166.667" fill="#B06B6B"/>
</svg>
