<svg width="717" height="717" viewBox="0 0 717 717" fill="none" xmlns="http://www.w3.org/2000/svg">
<path d="M553.334 458C553.333 409.5 554.315 436 550.834 395C541.834 289 474.334 207.5 361.334 195C244.834 204.5 170.334 286 158.334 396C158.334 432.43 155.334 412 158.334 454.5" stroke="#1C274C" stroke-width="50" stroke-linecap="round"/>
<path d="M358.334 157V458" stroke="#1C274C" stroke-width="50" stroke-linecap="round"/>
<path d="M191.667 69.594C240.696 41.2323 297.62 25 358.333 25C542.427 25 691.667 174.238 691.667 358.333C691.667 542.427 542.427 691.667 358.333 691.667C174.238 691.667 25 542.427 25 358.333C25 297.62 41.2323 240.696 69.594 191.667" stroke="#1C274C" stroke-width="50" stroke-linecap="round"/>
</svg>
