<svg width="750" height="750" viewBox="0 0 750 750" fill="none" xmlns="http://www.w3.org/2000/svg">
<path d="M366.75 603.25L381.25 544.25C451.5 557.5 504.25 552.25 526.5 488.75C544.5 437.75 525.75 408.25 488.75 389C515.75 382.75 536 365 541.25 328.5C548.75 278.5 510.75 251.75 458.75 233.75L472.75 177.5M292.75 584.75L307 526.25C318.25 529.25 329.25 532 339.75 534.75M343.25 205C334.25 203 260.25 184.5 260.25 184.5L249.25 228.5C249.25 228.5 279.75 235.5 279.25 236C296 240.25 299 251.25 298.5 260L252.25 445.25C250.25 450.25 245 458 233.5 455C234 455.5 203.5 447.5 203.5 447.5L183 494.75C183 494.75 256.25 513.25 266 515.75M417.75 221.75C407 219 395.75 216.5 384.75 214L398.25 159M342.75 386.25C370.75 393.25 460 407 446.75 460.25C434 511.25 348 483.75 320 476.75L332.5 426.5M373.75 262.75C397 268.5 471.75 279.25 459.75 327.75C448.25 374.25 376.5 350.5 353.25 344.75L363.75 302.75" stroke="#1C274C" stroke-width="25" stroke-miterlimit="10" stroke-linecap="round" stroke-linejoin="round"/>
<path d="M375 737.5C575.203 737.5 737.5 575.203 737.5 375C737.5 174.797 575.203 12.5 375 12.5C174.797 12.5 12.5 174.797 12.5 375C12.5 575.203 174.797 737.5 375 737.5Z" stroke="#1C274C" stroke-width="25" stroke-miterlimit="10" stroke-linecap="round" stroke-linejoin="round"/>
</svg>
