<svg viewBox="0 0 800 800" fill="none" xmlns="http://www.w3.org/2000/svg">
<path d="M595 500C594.999 451.5 595.981 478 592.5 437C583.5 331 516 249.5 403 237C286.5 246.5 212 328 200 438C200 474.43 197 454 200 496.5" stroke="#1C274C" stroke-width="50" stroke-linecap="round"/>
<path d="M400 199V500" stroke="#1C274C" stroke-width="50" stroke-linecap="round"/>
<path d="M233.333 111.594C282.362 83.2323 339.286 67 399.999 67C584.093 67 733.333 216.238 733.333 400.333C733.333 584.427 584.093 733.667 399.999 733.667C215.904 733.667 66.666 584.427 66.666 400.333C66.666 339.62 82.8984 282.696 111.26 233.667" stroke="#1C274C" stroke-width="50" stroke-linecap="round"/>
</svg>
